<svg width="1920" height="654" viewBox="0 0 1920 654" fill="none" xmlns="http://www.w3.org/2000/svg">
<ellipse cx="447.983" cy="439.344" rx="243.408" ry="228.994" transform="rotate(5.33831 447.983 439.344)" fill="white"/>
<ellipse cx="185.048" cy="521.557" rx="243.408" ry="228.994" transform="rotate(5.33831 185.048 521.557)" fill="white"/>
<ellipse cx="750.49" cy="578.089" rx="251.462" ry="202.415" transform="rotate(5.33831 750.49 578.089)" fill="white"/>
<ellipse cx="1075.37" cy="558.752" rx="207.798" ry="175.835" transform="rotate(5.33831 1075.37 558.752)" fill="white"/>
<ellipse cx="943.734" cy="421.598" rx="73.3132" ry="58.8842" transform="rotate(5.33831 943.734 421.598)" fill="white"/>
<ellipse cx="531.362" cy="217.143" rx="73.3132" ry="58.8842" transform="rotate(5.33831 531.362 217.143)" fill="white"/>
<ellipse cx="109.522" cy="59.4438" rx="73.3132" ry="58.8842" transform="rotate(5.33831 109.522 59.4438)" fill="white"/>
<ellipse cx="5.49095" cy="85.8647" rx="73.3132" ry="58.8842" transform="rotate(5.33831 5.49095 85.8647)" fill="white"/>
<ellipse cx="227.134" cy="70.434" rx="73.3132" ry="58.8842" transform="rotate(5.33831 227.134 70.434)" fill="white"/>
<ellipse cx="769.265" cy="405.295" rx="73.3132" ry="58.8842" transform="rotate(5.33831 769.265 405.295)" fill="white"/>
<ellipse cx="1294.58" cy="441.24" rx="73.3132" ry="58.8842" transform="rotate(5.33831 1294.58 441.24)" fill="white"/>
<ellipse cx="1422.75" cy="610.514" rx="217.605" ry="172.155" transform="rotate(5.33831 1422.75 610.514)" fill="white"/>
<ellipse cx="1775.61" cy="628.701" rx="217.605" ry="172.155" transform="rotate(5.33831 1775.61 628.701)" fill="white"/>
<ellipse cx="164.584" cy="262.547" rx="263.367" ry="219.998" transform="rotate(5.33831 164.584 262.547)" fill="white"/>
<ellipse cx="1651.69" cy="503.358" rx="73.3132" ry="58.8842" transform="rotate(5.33831 1651.69 503.358)" fill="white"/>
</svg>
