<svg width="49" height="53" viewBox="0 0 49 53" fill="none" xmlns="http://www.w3.org/2000/svg">
<path fill-rule="evenodd" clip-rule="evenodd" d="M24.5 0C16.9828 0 10.8889 5.93223 10.8889 13.25C10.8889 20.5678 16.9828 26.5 24.5 26.5C32.0172 26.5 38.1111 20.5678 38.1111 13.25C38.1111 5.93223 32.0172 0 24.5 0ZM16.3333 13.25C16.3333 8.85934 19.9897 5.3 24.5 5.3C29.0103 5.3 32.6667 8.85934 32.6667 13.25C32.6667 17.6407 29.0103 21.2 24.5 21.2C19.9897 21.2 16.3333 17.6407 16.3333 13.25Z" fill="#2D3648"/>
<path d="M13.6111 31.8C10.0012 31.8 6.53918 33.196 3.9866 35.6808C1.43402 38.1657 0 41.5359 0 45.05V50.35C0 51.8136 1.21878 53 2.72222 53C4.22566 53 5.44444 51.8136 5.44444 50.35V45.05C5.44444 42.9415 6.30486 40.9194 7.83641 39.4285C9.36795 37.9376 11.4452 37.1 13.6111 37.1H35.3889C37.5548 37.1 39.632 37.9376 41.1636 39.4285C42.6951 40.9194 43.5556 42.9415 43.5556 45.05V50.35C43.5556 51.8136 44.7743 53 46.2778 53C47.7812 53 49 51.8136 49 50.35V45.05C49 41.5359 47.566 38.1657 45.0134 35.6808C42.4608 33.196 38.9988 31.8 35.3889 31.8H13.6111Z" fill="#2D3648"/>
</svg>
