<?xml version="1.0" standalone="no"?>
<!DOCTYPE svg PUBLIC "-//W3C//DTD SVG 20010904//EN"
 "http://www.w3.org/TR/2001/REC-SVG-20010904/DTD/svg10.dtd">
<svg version="1.0" xmlns="http://www.w3.org/2000/svg"
 width="1920.000000pt" height="1080.000000pt" viewBox="0 0 1920.000000 1080.000000"
 preserveAspectRatio="xMidYMid meet">

<g transform="translate(0.000000,1080.000000) scale(0.100000,-0.100000)"
fill="#000000" stroke="none">
<path d="M9409 10696 c-2 -2 -80 -9 -174 -16 -394 -27 -587 -57 -977 -155
-232 -58 -598 -183 -776 -266 -35 -16 -65 -29 -68 -29 -9 0 -342 -169 -419
-212 -180 -103 -419 -255 -556 -355 -64 -47 -249 -192 -259 -203 -3 -3 -50
-44 -105 -91 -185 -159 -456 -442 -631 -659 -188 -233 -334 -449 -508 -750
-65 -112 -276 -557 -276 -582 0 -4 -9 -27 -19 -51 -29 -62 -126 -340 -151
-432 -12 -44 -26 -90 -31 -103 -5 -13 -9 -34 -9 -47 0 -13 -4 -26 -9 -29 -5
-3 -11 -20 -14 -38 -3 -18 -10 -51 -15 -73 -48 -200 -90 -452 -123 -740 -17
-149 -17 -822 0 -970 34 -299 54 -424 102 -640 5 -22 13 -60 19 -85 42 -201
132 -494 220 -715 106 -268 222 -509 370 -770 108 -190 318 -488 505 -714 286
-348 684 -710 1067 -973 80 -56 318 -208 323 -208 3 0 42 -22 87 -49 75 -44
343 -179 443 -224 38 -17 186 -79 230 -97 229 -92 597 -202 840 -250 346 -68
451 -83 770 -105 328 -23 568 -18 930 20 170 18 232 28 433 66 533 102 1089
303 1561 566 124 69 429 257 441 272 3 4 19 15 35 25 111 70 340 253 520 417
340 308 622 635 882 1024 263 394 548 1000 654 1393 5 17 13 47 18 65 56 198
125 512 152 697 20 135 39 364 55 664 11 211 -22 681 -66 936 -39 224 -72 372
-145 645 -27 104 -127 395 -175 510 -186 452 -459 928 -714 1248 -315 395
-679 755 -1021 1010 -292 218 -673 445 -985 585 -36 16 -90 41 -120 55 -121
56 -450 175 -600 217 -25 7 -56 16 -70 20 -45 15 -338 83 -420 98 -187 35
-366 60 -505 71 -71 6 -185 15 -252 21 -117 10 -455 14 -464 6z m501 -426
c308 -26 450 -45 680 -91 113 -22 372 -85 405 -99 11 -4 40 -13 65 -20 60 -17
218 -69 255 -85 17 -6 57 -22 90 -35 33 -12 79 -31 102 -41 24 -11 45 -19 48
-19 6 0 97 -42 260 -120 159 -77 495 -271 503 -292 2 -4 8 -8 14 -8 15 0 215
-145 352 -254 276 -221 509 -451 747 -736 125 -151 354 -482 439 -635 123
-221 167 -306 224 -435 88 -199 116 -269 189 -480 9 -25 29 -94 46 -155 17
-60 36 -126 41 -145 15 -50 55 -233 69 -310 7 -36 16 -87 21 -115 5 -27 14
-89 20 -137 6 -49 15 -123 20 -165 47 -373 27 -895 -49 -1333 -5 -30 -14 -82
-19 -115 -18 -108 -122 -497 -143 -537 -5 -10 -9 -27 -9 -37 0 -11 -4 -23 -10
-26 -5 -3 -10 -16 -10 -29 0 -12 -4 -26 -8 -32 -4 -5 -14 -27 -21 -49 -14 -44
-37 -100 -52 -127 -5 -10 -9 -22 -9 -28 0 -21 -164 -370 -228 -485 -21 -38
-51 -92 -67 -120 -106 -193 -346 -532 -524 -740 -142 -167 -419 -438 -601
-589 -121 -100 -536 -396 -554 -396 -3 0 -29 -14 -58 -32 -159 -94 -471 -258
-492 -258 -3 0 -33 -13 -68 -29 -136 -63 -294 -121 -558 -205 -68 -22 -269
-74 -330 -85 -25 -5 -103 -20 -175 -34 -124 -24 -244 -41 -475 -68 -140 -17
-730 -16 -875 0 -134 15 -373 49 -435 61 -89 17 -156 30 -195 39 -22 5 -60 13
-85 19 -156 33 -623 181 -647 205 -3 4 -12 7 -20 7 -7 0 -33 9 -58 20 -25 11
-64 29 -87 39 -253 112 -410 195 -643 338 -86 52 -267 172 -275 182 -3 4 -18
15 -33 24 -105 67 -359 289 -553 482 -257 256 -449 483 -597 705 -20 30 -42
61 -48 68 -6 7 -53 84 -105 170 -312 517 -529 1102 -634 1702 -52 303 -78 728
-61 1014 11 192 17 254 42 454 26 206 90 505 149 697 12 39 25 84 30 100 21
77 109 317 156 423 9 21 24 55 34 77 32 74 139 289 173 350 152 269 239 402
410 629 190 252 457 535 707 751 99 84 324 253 470 351 262 176 435 271 775
424 138 63 432 168 590 211 22 6 51 15 65 19 162 53 530 122 785 149 300 31
615 39 835 21z"/>
<path d="M9313 8639 c-127 -12 -276 -45 -358 -78 -11 -5 -31 -13 -45 -18 -157
-64 -340 -184 -459 -304 -145 -146 -281 -359 -351 -554 -67 -185 -96 -458 -71
-671 13 -113 58 -296 91 -370 137 -308 305 -515 542 -671 231 -152 448 -221
724 -230 169 -6 294 9 444 54 232 69 442 199 616 383 75 79 94 103 158 200
118 179 178 335 226 582 15 74 14 397 0 462 -52 232 -84 327 -158 466 -96 182
-269 377 -442 501 -256 183 -610 279 -917 248z m367 -615 c283 -94 475 -295
566 -589 25 -82 27 -104 27 -245 0 -169 -7 -209 -64 -345 -101 -243 -308 -425
-569 -500 -90 -27 -317 -27 -409 -2 -91 25 -235 95 -308 151 -132 100 -255
280 -301 441 -46 162 -51 300 -16 458 77 337 353 600 694 661 14 2 86 3 160 2
117 -3 146 -7 220 -32z"/>
<path d="M8185 5150 c-130 -12 -229 -33 -350 -75 -354 -123 -679 -431 -824
-780 -61 -146 -80 -209 -106 -356 -11 -65 -15 -175 -15 -486 0 -400 0 -403 23
-455 29 -64 108 -139 165 -156 105 -32 225 -1 294 76 73 80 71 72 79 522 6
361 9 413 27 475 26 94 56 167 96 235 43 73 56 89 146 181 108 110 201 165
365 217 44 14 191 16 1300 19 833 3 1272 0 1317 -7 253 -39 480 -205 602 -440
95 -183 98 -204 105 -670 7 -417 9 -432 57 -501 54 -79 133 -119 231 -119 120
0 219 71 263 187 19 50 20 78 20 416 0 206 -5 396 -11 442 -24 176 -101 418
-171 538 -15 26 -28 52 -28 57 0 4 -3 10 -7 12 -5 2 -30 37 -58 78 -102 153
-308 334 -506 443 -57 31 -218 92 -285 108 -185 43 -127 41 -1414 44 -674 1
-1265 -1 -1315 -5z"/>
</g>
</svg>
