<svg width="285" height="285" viewBox="0 0 285 285" fill="none" xmlns="http://www.w3.org/2000/svg">
<ellipse cx="140.648" cy="140.508" rx="140.648" ry="140.508" transform="matrix(0.99993 0.0118377 -0.0115871 0.999933 3.64746 0.589111)" fill="#C8DEE0"/>
<path fill-rule="evenodd" clip-rule="evenodd" d="M141.5 48C117.107 48 97.3333 68.2591 97.3333 93.25C97.3333 118.241 117.107 138.5 141.5 138.5C165.893 138.5 185.667 118.241 185.667 93.25C185.667 68.2591 165.893 48 141.5 48ZM115 93.25C115 78.2555 126.864 66.1 141.5 66.1C156.136 66.1 168 78.2555 168 93.25C168 108.245 156.136 120.4 141.5 120.4C126.864 120.4 115 108.245 115 93.25Z" fill="#17255A"/>
<path d="M106.167 156.6C94.4529 156.6 83.219 161.367 74.9361 169.853C66.6533 178.339 62 189.849 62 201.85V219.95C62 224.948 65.9548 229 70.8333 229C75.7118 229 79.6667 224.948 79.6667 219.95V201.85C79.6667 194.649 82.4586 187.744 87.4283 182.652C92.3981 177.56 99.1384 174.7 106.167 174.7H176.833C183.862 174.7 190.602 177.56 195.572 182.652C200.541 187.744 203.333 194.649 203.333 201.85V219.95C203.333 224.948 207.288 229 212.167 229C217.045 229 221 224.948 221 219.95V201.85C221 189.849 216.347 178.339 208.064 169.853C199.781 161.367 188.547 156.6 176.833 156.6H106.167Z" fill="#17255A"/>
</svg>
