<?xml version="1.0" standalone="no"?>
<!DOCTYPE svg PUBLIC "-//W3C//DTD SVG 20010904//EN"
 "http://www.w3.org/TR/2001/REC-SVG-20010904/DTD/svg10.dtd">
<svg version="1.0" xmlns="http://www.w3.org/2000/svg"
 width="1920.000000pt" height="1080.000000pt" viewBox="0 0 1920.000000 1080.000000"
 preserveAspectRatio="xMidYMid meet">

<g transform="translate(0.000000,1080.000000) scale(0.100000,-0.100000)"
fill="#000000" stroke="none">
<path d="M20 9052 l0 -1209 84 -12 c70 -10 164 -35 237 -65 13 -6 21 7 39 56
47 132 119 238 240 351 66 62 103 88 184 127 134 64 213 83 351 82 237 -1 427
-88 597 -271 l73 -80 55 67 c226 271 609 361 934 217 274 -121 478 -424 502
-745 l7 -86 101 -62 c436 -270 817 -676 1086 -1157 104 -186 214 -432 265
-596 l18 -56 76 18 c73 17 258 46 331 51 l35 3 7 86 c24 325 227 621 512 749
106 48 189 64 316 64 142 -1 225 -20 345 -79 431 -214 612 -773 400 -1233 -19
-41 -35 -76 -35 -77 0 -2 48 -43 108 -92 439 -367 804 -921 1008 -1533 27 -80
50 -147 52 -149 1 -3 51 12 110 32 l107 36 46 91 c56 109 108 178 199 264 262
247 656 286 952 94 145 -94 232 -193 318 -360 l56 -110 104 -39 c58 -22 140
-56 183 -76 42 -20 79 -34 81 -32 2 2 15 46 29 96 74 261 237 459 468 567 117
56 187 71 329 71 142 0 232 -21 348 -79 110 -55 235 -159 293 -244 l16 -22 96
45 c298 141 688 213 1015 186 486 -39 915 -223 1296 -555 l73 -64 6 106 c18
320 207 612 482 748 129 63 196 79 345 79 149 0 216 -16 345 -79 256 -126 417
-358 480 -689 5 -22 10 -27 23 -22 9 4 70 22 136 41 730 211 1521 46 2125
-443 46 -37 96 -78 111 -91 l28 -23 7 58 c40 347 241 632 531 753 118 49 200
63 334 57 63 -3 125 -9 138 -13 l22 -6 0 3231 0 3231 -9580 0 -9580 0 0 -1208z"/>
</g>
</svg>
