<svg width="1920" height="672" viewBox="0 0 1920 672" fill="none" xmlns="http://www.w3.org/2000/svg">
<path opacity="0.5" d="M189 384.996C189 459.931 134.826 520.677 68 520.677C1.17355 520.677 -53 459.931 -53 384.996C-53 310.062 -23 157.688 68 249.316C171.73 454.892 189 310.062 189 384.996Z" fill="#007EA7"/>
<path d="M1668.91 374.135C2178.33 -118.494 2585.45 1156.14 988.653 795.984C605.952 679.105 -155 906.271 -155 658.574C16.0079 408.113 17.0868 -31.6515 597.544 408.113C772.869 138.236 899.642 454.71 1668.91 374.135Z" fill="#007EA7"/>
<path opacity="0.4" d="M1371.84 775.694C1235.72 779.678 1024.74 570.551 1018.44 324.935C963.45 -135.645 1935.04 562.024 1344.73 413.751C1480.84 409.767 1885.88 111.208 1917.34 245.952C2150.4 487.713 1507.96 771.709 1371.84 775.694Z" fill="#007EA7"/>
<path opacity="0.5" d="M1845 705.137C1875.9 857.332 1723.86 845.424 1549.22 885.867C1333.68 884.631 1275.2 949.324 1212.58 851.592C1181.68 699.396 1447.65 257.836 1622.29 217.394C1800.74 70.2898 1814.1 552.941 1845 705.137Z" fill="#007EA7"/>
</svg>
