<svg width="50" height="56" viewBox="0 0 50 56" fill="none" xmlns="http://www.w3.org/2000/svg">
<path d="M31.1476 44.6377C31.1476 46.4753 30.5041 48.4383 29.3513 49.8079C28.1987 51.1774 26.5465 51.942 25 51.942C23.3671 51.942 21.8015 51.1774 20.6488 49.8079C19.496 48.4383 18.8525 46.4753 18.8525 44.6377H31.1476Z" fill="white"/>
<path d="M28.1013 3.18395V5.09432C35.1797 6.56989 40.5128 12.9945 40.5128 20.6956V22.5663C40.5128 27.2527 42.1903 31.7598 45.2155 35.2622L45.9331 36.0881C46.7476 37.0334 46.9513 38.3665 46.447 39.5109C45.9428 40.655 44.8375 41.3913 43.6157 41.3913H6.38117C5.15941 41.3913 4.05121 40.655 3.55067 39.5109C3.05014 38.3665 3.25035 37.0334 4.06216 36.0881L4.78125 35.2622C7.81043 31.7598 9.48405 27.2527 9.48405 22.5663V20.6956C9.48405 12.9945 14.7298 6.56989 21.8956 5.09432V3.18395C21.8956 1.42581 23.2822 0 24.9984 0C26.7147 0 28.1013 1.42581 28.1013 3.18395Z" fill="white"/>
<path d="M28.1013 3.18395V5.09432C35.1797 6.56989 40.5128 12.9945 40.5128 20.6956V22.5663C40.5128 27.2527 42.1903 31.7598 45.2155 35.2622L45.9331 36.0881C46.7476 37.0334 46.9513 38.3665 46.447 39.5109C45.9428 40.655 44.8375 41.3913 43.6157 41.3913H6.38117C5.15941 41.3913 4.05121 40.655 3.55067 39.5109C3.05014 38.3665 3.25035 37.0334 4.06216 36.0881L4.78125 35.2622C7.81043 31.7598 9.48405 27.2527 9.48405 22.5663V20.6956C9.48405 12.9945 14.7298 6.56989 21.8956 5.09432V3.18395C21.8956 1.42581 23.2822 0 24.9984 0C26.7147 0 28.1013 1.42581 28.1013 3.18395Z" fill="white"/>
<path d="M31.1476 44.6377C31.1476 46.4753 30.5041 48.4383 29.3513 49.8079C28.1987 51.1774 26.5465 51.942 25 51.942C23.3671 51.942 21.8015 51.1774 20.6488 49.8079C19.496 48.4383 18.8525 46.4753 18.8525 44.6377H31.1476Z" fill="white"/>
</svg>
